# xmcd CD database file
#
# Track frame offsets:
#	150
#	9535
#	21336
#	32311
#	41450
#	52353
#	62523
#	71092
#	84613
#	121662
#	164121
#	188197
#	214607
#	264465
#
# Disc length: 3978 seconds
#
# Revision: 1
# Processed by: cddbd v1.5.1PL0 Copyright (c) Steve Scherf et al.
# Submitted via: CDex 1.51
#
DISCID=c10f880e
DTITLE=Canned Heat - Experience
DYEAR=1900
DGENRE=Blues
TTITLE0=Big Road Blues
TTITLE1=Got My Mojo Working
TTITLE2=Sponful
TTITLE3=Rollin And Tumblin
TTITLE4=Can't Hold On
TTITLE5=Dimples
TTITLE6=Pretty Thing
TTITLE7=Louise
TTITLE8=Wish You Would
TTITLE9=When Things Go Wrong
TTITLE10=I'd Rather Be A Devil
TTITLE11=Bust My Broom
TTITLE12=Sweet Sixteen
TTITLE13=Bull Frog Blues
EXTD=
EXTT0=
EXTT1=
EXTT2=
EXTT3=
EXTT4=
EXTT5=
EXTT6=
EXTT7=
EXTT8=
EXTT9=
EXTT10=
EXTT11=
EXTT12=
EXTT13=
PLAYORDER=
